<?xml version='1.0' encoding='utf-8'?>
<svg xmlns="http://www.w3.org/2000/svg" enable-background="new 0 0 126 95.359" version="1.1" viewBox="0 0 126 95.359">
	<path d="m65.466 18.262c17.887 17.636 17.887 41.313 0 58.947m-25.453-10.757c13.754-9.813 32.219-9.813 45.974 0m-24.94-48.473c-18.011 17.757-18.011 41.599 0 59.356m1.8-59.325c-16.394 0.084-29.616 13.442-29.531 29.836 0.083 16.396 13.442 29.616 29.837 29.533 16.393-0.085 29.616-13.442 29.531-29.837-0.083-16.275-13.256-29.448-29.531-29.532h-0.306zm0.153 0v59.369m29.685-29.685h-59.37m6.698-17.86c13.754 9.812 32.219 9.812 45.974 0" fill="none" stroke="#000" stroke-width="3.0446"/>
</svg>